<svg width="166" height="64" viewBox="0 0 166 64" fill="none" xmlns="http://www.w3.org/2000/svg">
<g clip-path="url(#clip0_15_4340)">
<path d="M28.8568 6.19211L28.9915 6.06421C29.1699 6.24873 29.4736 7.99211 29.5688 8.37059C32.9582 21.9104 45.9535 25.0836 46.6741 40.0055L41.9448 40.0118C40.3956 39.9923 38.8558 40.04 37.2954 40.0074C36.7669 38.5773 36.2522 37.122 35.6981 35.7021C35.5583 35.3986 35.3515 34.8995 35.0024 34.7937C34.5889 34.6685 34.1703 34.9977 34.0536 35.3863C33.7233 36.4843 33.4866 37.6303 33.2292 38.7509C32.7137 41.0369 32.1801 43.3186 31.6268 45.5958C31.4689 43.7495 31.0357 41.4125 30.7595 39.5258C30.159 35.6597 29.6203 31.7845 29.1425 27.9012C29.0584 27.2341 28.8757 26.2983 28.0024 26.458C27.7794 26.5989 27.619 26.7072 27.5469 26.9686C27.2595 28.0084 27.0905 29.2377 26.8984 30.3096L25.7857 36.5963C25.5856 37.7581 25.3497 39.4027 25.0655 40.5131C24.7655 39.6932 24.4737 38.8108 24.1454 38.0085C23.8577 37.3052 23.5136 35.6494 22.6476 35.6718C21.8056 36.1074 20.8616 38.9707 20.3901 40.0319C17.5143 39.9209 14.0654 40.0097 11.1597 40.0142C11.6447 32.1542 17.6452 22.6517 21.9077 16.1878C24.1338 12.794 26.4509 9.4609 28.8568 6.19211Z" fill="#A71E2A"/>
<path d="M28.8567 6.19211L28.9914 6.06421C29.1698 6.24873 29.4735 7.99211 29.5687 8.37059C32.958 21.9104 45.9534 25.0836 46.674 40.0055L41.9447 40.0118C41.1641 29.7375 35.3557 29.0618 31.1437 21.0799C29.3851 17.7471 28.4844 13.5457 28.6422 9.797C28.6757 8.86564 28.6337 7.91585 28.9416 7.02164C29.0797 6.61846 29.0334 6.53791 28.8567 6.19211Z" fill="#821015"/>
<path d="M28.1592 32.1484C28.4123 33.2104 28.6825 35.6493 28.8532 36.8521L30.1288 45.8425C30.2815 46.9475 30.4162 48.0523 30.5938 49.1566C30.6899 49.7503 30.8323 50.5067 31.6412 50.3281C31.9655 50.2564 32.1696 49.9618 32.2511 49.6552C32.5814 48.4183 32.8525 47.1582 33.1407 45.9097L34.9602 38.0029C35.305 38.9833 35.6653 40.6524 36.3902 41.3674C36.729 41.7022 45.545 41.55 46.6062 41.5511C46.4903 43.3761 46.0769 45.1698 45.382 46.8612C43.4931 51.4026 39.9579 54.6905 35.4423 56.542C34.0783 57.0536 32.6577 57.4003 31.2114 57.5748C20.7928 58.7396 12.3459 51.9482 11.1978 41.5472C14.3756 41.5246 18.2649 41.6749 21.3738 41.5122C21.8214 40.8479 22.3815 39.2379 22.6853 38.4298C23.1641 39.708 23.635 40.9891 24.0982 42.2731C24.2463 42.6719 24.6199 43.7544 24.9974 43.9018C25.5933 44.1344 25.975 43.8268 26.114 43.2601C26.3327 42.3687 26.455 41.4931 26.6148 40.6006L27.5931 35.1504C27.7475 34.2889 27.919 33.0554 28.1352 32.2389L28.1592 32.1484Z" fill="#A71E2A"/>
<path d="M126.452 28.0702C130.044 27.656 133.289 30.2383 133.693 33.8318C134.097 37.4254 131.505 40.6635 127.91 41.0566C124.331 41.4481 121.109 38.8693 120.707 35.2906C120.305 31.7121 122.874 28.4827 126.452 28.0702Z" fill="#821015"/>
<path d="M126.777 29.6509C133.184 29.5533 133.491 38.462 127.772 39.4521C121.478 39.8808 120.653 30.555 126.777 29.6509Z" fill="white"/>
<path d="M90.7305 27.8093C96.0424 27.2002 98.4106 30.6474 98.356 35.4982C95.2261 35.588 91.778 35.5025 88.6046 35.5251C90.0029 38.8031 92.7507 38.6855 95.4217 36.9257C95.7366 36.9737 95.7841 37.1474 96.0449 37.4472L97.5749 38.9981C95.1839 41.6489 90.6003 41.8161 87.7472 39.9423C83.3759 37.0715 84.2165 29.8607 89.1941 28.1823C89.7174 28.006 90.1965 27.9115 90.7305 27.8093Z" fill="#821015"/>
<path d="M91.0867 30.6741C93.1002 30.5719 94.3799 31.1606 94.7841 33.2636L92.5665 33.2673C91.2271 33.274 89.8657 33.2972 88.5293 33.236C89.1065 31.7025 89.513 31.1654 91.0867 30.6741Z" fill="white"/>
<path d="M55.4866 23.996L59.3419 23.9954L59.3422 37.7291L67.5763 37.7203L67.588 40.9517L55.4745 40.946C55.3236 35.6675 55.4259 29.3251 55.4866 23.996Z" fill="#821015"/>
<path d="M81.1704 22.8714C82.8283 22.7764 83.4878 22.9088 85.0171 23.5075C84.6698 24.4354 84.4256 25.2354 84.1457 26.1876C83.3658 25.8936 82.6215 25.6534 81.8343 26.0289C81.3684 26.2498 81.0121 26.6505 80.8469 27.1389C80.7462 27.4342 80.7232 27.7213 80.8577 28.0061C81.3907 28.4274 83.3331 28.2537 84.137 28.2396L84.1403 31.1949L80.9323 31.195L80.9411 39.404L80.9438 40.9511L77.2058 40.9372C77.1219 37.8218 77.2021 34.3493 77.2074 31.2066L75.1797 31.2059L75.1807 28.2454L77.154 28.2842C77.3024 25.2912 77.9361 23.515 81.1704 22.8714Z" fill="#821015"/>
<path d="M143.771 28.135L145.496 28.1388C146.406 31.2372 148.097 35.6522 149.219 38.7847C149.787 37.3996 150.368 35.5881 150.881 34.1401C151.568 32.2003 152.354 30.0895 152.954 28.1403L154.789 28.1487L154.259 29.5297C152.886 33.327 151.559 37.1806 150.155 40.9585L148.295 40.961C147.128 37.7813 145.892 33.7693 144.606 30.7639C143.333 34.1458 142.108 37.545 140.93 40.9607L139.026 40.9601C137.554 36.6751 136.034 32.4072 134.465 28.157L136.296 28.1405L140.023 38.7023C141.222 35.5809 142.759 31.3054 143.771 28.135Z" fill="#821015"/>
<path d="M101.361 23.9976L112.809 24.004L112.811 25.6639C109.653 25.6295 106.448 25.6558 103.286 25.656V32.0621L111.358 32.0648C111.563 32.052 111.557 32.0699 111.742 32.1676C111.916 32.6181 111.833 33.273 111.808 33.7732L103.269 33.7737L103.298 40.9521L101.353 40.9394L101.361 23.9976Z" fill="#821015"/>
<path d="M69.5151 27.9272L73.3329 27.9284L73.331 40.9552L69.5135 40.9374C69.4845 36.6007 69.4851 32.2639 69.5151 27.9272Z" fill="#821015"/>
<path d="M115.693 23.071L117.613 23.0601L117.623 40.9531L115.697 40.9509L115.693 23.071Z" fill="#821015"/>
<path d="M70.601 22.0757C73.7456 21.6114 75.1124 24.7491 72.2401 26.147C69.1479 26.6517 67.7355 23.5759 70.601 22.0757Z" fill="#821015"/>
<path d="M68.5126 45.5032C69.5907 45.2252 70.6895 45.8757 70.9645 46.9545C71.2394 48.0329 70.5858 49.1301 69.5062 49.402C68.9362 49.5455 68.3319 49.433 67.8522 49.0933C67.2129 48.64 66.8944 47.8574 67.0362 47.0873C67.178 46.3168 67.754 45.6987 68.5126 45.5032Z" fill="#821015"/>
<path d="M68.7967 45.9972C69.5951 45.8822 70.3381 46.4286 70.4666 47.2248C70.595 48.0215 70.0612 48.7732 69.2672 48.9155C68.7416 49.0096 68.2061 48.8122 67.8665 48.4002C67.5271 47.9882 67.4362 47.4247 67.629 46.9265C67.8218 46.4286 68.2682 46.0733 68.7967 45.9972Z" fill="white"/>
<path d="M123.951 45.515C124.655 45.3168 125.411 45.5166 125.925 46.0369C126.439 46.5571 126.63 47.3157 126.423 48.0169C126.216 48.7192 125.645 49.2528 124.931 49.4112C123.87 49.6476 122.812 48.9958 122.546 47.94C122.281 46.8847 122.903 45.8098 123.951 45.515Z" fill="#821015"/>
<path d="M124.27 45.9898C125.084 45.8676 125.841 46.4305 125.958 47.2444C126.075 48.0581 125.508 48.8121 124.693 48.9257C123.886 49.0371 123.14 48.4759 123.023 47.668C122.907 46.8611 123.463 46.1111 124.27 45.9898Z" fill="white"/>
<path d="M63.9957 45.5103C64.7 45.3272 65.4481 45.5404 65.9504 46.0669C66.4526 46.5933 66.6301 47.3512 66.4142 48.0455C66.1983 48.7409 65.6227 49.2642 64.9105 49.4123C63.8451 49.6361 62.7964 48.9681 62.548 47.9078C62.2995 46.8484 62.9422 45.784 63.9957 45.5103Z" fill="#821015"/>
<path d="M64.2271 45.9941C64.759 45.8977 65.3014 46.0978 65.643 46.5168C65.9847 46.9357 66.0717 47.5073 65.8703 48.0088C65.6689 48.5103 65.2107 48.8626 64.6742 48.9292C63.8764 49.0279 63.1449 48.4736 63.024 47.6794C62.9029 46.8843 63.4362 46.1375 64.2271 45.9941Z" fill="white"/>
<path d="M106.402 45.5147C107.473 45.2466 108.558 45.8973 108.827 46.9684C109.096 48.0397 108.446 49.1254 107.375 49.3951C106.303 49.6647 105.215 49.0141 104.947 47.9422C104.678 46.8698 105.329 45.7829 106.402 45.5147Z" fill="#821015"/>
<path d="M106.674 45.9939C107.474 45.8793 108.218 46.4281 108.345 47.2265C108.471 48.025 107.934 48.7767 107.138 48.9167C106.612 49.0085 106.077 48.81 105.739 48.3968C105.4 47.9837 105.311 47.4191 105.505 46.9219C105.698 46.4242 106.145 46.0695 106.674 45.9939Z" fill="white"/>
<path d="M71.8413 45.4701C72.9048 45.4685 73.8005 45.387 74.7399 45.9936C75.8646 46.72 75.5887 47.9755 74.8741 48.8867C74.0096 49.5454 72.9147 49.4181 71.8436 49.4226L71.8413 45.4701Z" fill="#821015"/>
<path d="M72.3916 46.0036C74.1148 45.9696 75.6483 46.3852 74.5807 48.4771C73.7441 49.0154 73.3818 48.9213 72.3983 48.9109L72.3916 46.0036Z" fill="white"/>
<path d="M100.761 45.4738C101.848 45.4701 102.834 45.3984 103.757 46.0795C104.873 46.9038 104.437 48.1042 103.68 48.9753C102.851 49.5284 101.758 49.4148 100.758 49.4217L100.761 45.4738Z" fill="#821015"/>
<path d="M101.331 46.0086C103.018 45.9972 104.521 46.3138 103.538 48.4393C102.662 49.0154 102.389 48.919 101.338 48.9087L101.331 46.0086Z" fill="white"/>
<path d="M55.5389 45.4754C56.4288 45.4642 57.8132 45.3075 58.5 45.9968C58.9729 46.4715 58.2205 47.2739 58.3009 47.396C58.7742 48.1179 58.8264 48.0295 58.7215 48.9269C58.0021 49.573 56.5001 49.4273 55.5347 49.4307L55.5389 45.4754Z" fill="#821015"/>
<path d="M56.0942 47.6267C56.7957 47.6049 57.5909 47.4717 58.1141 47.9147C58.3177 48.3864 58.2717 48.2108 58.2168 48.7376C57.6516 48.9728 56.7964 49.13 56.2598 48.7766C55.9899 48.2957 56.088 48.2624 56.0942 47.6267Z" fill="white"/>
<path d="M56.1049 45.9896C56.7006 45.9751 57.4884 45.8629 57.9242 46.2289C58.111 46.6668 58.0556 46.5443 57.9922 47.0618C57.5357 47.2519 56.7116 47.3479 56.2803 47.0733C56.0103 46.6448 56.1073 46.5859 56.1049 45.9896Z" fill="white"/>
<path d="M77.7119 45.4769C78.5014 45.467 79.9974 45.3982 80.6275 45.8429C80.8448 46.4193 80.4457 46.8382 80.5339 47.2096C80.7873 48.2764 81.1119 47.8219 80.8033 49.0441C79.9003 49.556 78.7628 49.4194 77.7031 49.4137L77.7119 45.4769Z" fill="#821015"/>
<path d="M78.253 47.628C78.9334 47.6027 79.7545 47.473 80.285 47.8701C80.515 48.336 80.4548 48.1788 80.3825 48.7503C79.7867 48.9787 78.933 49.1669 78.3946 48.7641C78.1719 48.4233 78.2408 48.0572 78.253 47.628Z" fill="white"/>
<path d="M78.4821 45.9611C79.124 45.9629 79.7721 45.8456 80.197 46.372C80.2118 46.8443 80.1949 46.7253 79.9552 47.1851C79.3394 47.2184 78.739 47.38 78.2865 46.9449C78.2327 46.5619 78.2418 46.4841 78.2915 46.0987L78.4821 45.9611Z" fill="white"/>
<path d="M96.2497 45.4581C96.8277 45.4214 97.0791 45.4208 97.5409 45.7814C97.9141 46.5746 97.4655 46.89 96.8745 47.3651C97.1226 47.637 97.2956 47.8539 97.6166 48.0444C97.9532 47.9699 98.342 47.4247 98.6843 47.0934C98.5224 47.6657 98.1824 48.1007 98.2825 48.6573C98.4446 48.9006 98.4874 48.982 98.5994 49.2552L98.6275 49.3252C98.211 49.3458 97.8927 49.0693 97.8895 49.0704C97.2489 49.2701 95.9741 49.6109 95.4098 49.1484C95.1143 48.9063 95.1585 48.1489 95.4157 47.8815C96.0975 47.1741 96.0828 47.2298 95.7273 46.2753C95.8079 45.844 95.9428 45.7555 96.2497 45.4581Z" fill="#821015"/>
<path d="M96.384 47.489C96.8233 47.8585 97.4114 48.1707 97.3219 48.7606L96.8897 49.0509C96.2758 49.0302 95.9419 48.9499 95.79 48.3394C95.8636 47.9136 96.0629 47.7851 96.384 47.489Z" fill="white"/>
<path d="M96.5774 45.8531C96.8676 45.7879 97.1557 45.9698 97.2217 46.2598C97.2876 46.5498 97.1064 46.8384 96.8166 46.905C96.5258 46.9719 96.2359 46.7899 96.1698 46.499C96.1036 46.2079 96.2863 45.9186 96.5774 45.8531Z" fill="white"/>
<path d="M152.305 48.2464C152.655 47.5854 153.526 45.7141 154.187 45.496C154.453 45.9778 154.46 48.8982 154.116 49.3756L153.925 49.3802C153.733 49.0761 153.797 47.7185 153.798 47.2652L153.78 46.9152L153.658 46.8652C153.351 47.1668 152.617 48.5597 152.289 49.0761C151.858 48.4748 151.169 47.2545 150.733 46.5639C150.765 47.6095 150.85 48.22 150.604 49.2368L150.478 49.262C150.093 48.3784 150.231 46.3768 150.291 45.3704C151.009 45.6279 151.86 47.4763 152.305 48.2464Z" fill="#821015"/>
<path d="M115.309 45.374L115.615 45.4811C116.074 45.9252 117.248 48.7204 117.344 49.3344L117.158 49.4239C116.508 49.1267 116.943 48.5322 115.949 48.4381C115.431 48.4312 114.776 48.3589 114.366 48.616C114.222 49.1749 114.27 49.3115 113.677 49.4239L113.556 49.2793C114.084 48.0525 114.692 46.532 115.309 45.374Z" fill="#821015"/>
<path d="M115.39 46.198C115.724 46.417 116.259 47.4776 116.146 47.9022L115.834 47.9619C115.451 47.9837 115.172 48.0479 114.856 47.854C114.761 47.3766 115.159 46.7275 115.39 46.198Z" fill="white"/>
<path d="M83.0861 45.3984L83.3936 45.473C83.81 45.8679 84.9636 48.6963 85.0915 49.3034L84.9817 49.3952C84.138 48.9855 84.7095 48.515 83.5263 48.437C82.1243 48.406 82.3745 48.4622 81.4409 49.4331L81.475 49.1496L81.4582 49.4009L81.5491 49.2919L81.4569 49.1806C81.8488 47.9963 82.4664 46.4833 83.0861 45.3984Z" fill="#821015"/>
<path d="M83.2015 46.2197C83.49 46.3627 83.9529 47.5395 83.937 47.8929L83.7001 47.9652C83.2512 47.9893 82.8843 48.0995 82.5914 47.7369C82.5606 47.3272 82.9952 46.6194 83.2015 46.2197Z" fill="white"/>
<path d="M109.693 45.3706C110.351 45.4683 111.919 47.7943 112.38 48.4037C112.365 47.6119 112.278 46.3538 112.592 45.648L112.736 45.6621C113.093 46.5124 113.027 48.6321 112.863 49.5272C112.127 49.1956 110.825 47.2552 110.195 46.4824C110.232 47.3181 110.344 48.5254 110.03 49.2885L109.903 49.2679C109.493 48.3521 109.628 46.4091 109.693 45.3706Z" fill="#821015"/>
<path d="M85.8274 45.3701C86.5475 45.544 87.9936 47.7587 88.5029 48.4634C88.4846 47.5051 88.3865 46.5614 88.7064 45.6642L88.8544 45.6714C89.2265 46.5255 89.1318 48.6057 88.9996 49.5341C88.3288 49.3126 86.8628 47.1567 86.3348 46.4813C86.3543 47.5166 86.4309 48.2843 86.1586 49.2851L86.041 49.3149C85.6399 48.4645 85.7568 46.3474 85.8274 45.3701Z" fill="#821015"/>
<path d="M127.346 45.3694C128.021 45.5443 129.519 47.7368 130.036 48.4322C130.039 47.6255 129.853 45.9862 130.267 45.4384L130.414 45.4621C130.648 46.0415 130.535 48.7742 130.521 49.5431C129.798 49.309 128.389 47.1824 127.855 46.4585C127.881 47.2478 127.98 48.6009 127.661 49.309L127.526 49.2677C127.166 48.3886 127.251 46.3424 127.346 45.3694Z" fill="#821015"/>
<path d="M146.632 45.4794C147.581 45.462 148.349 45.3762 149.239 45.721L149.179 45.839C148.524 46.0576 147.889 46.0044 147.2 45.9939C147.172 46.3525 147.114 46.6873 147.241 47.0243C147.663 47.2783 147.779 47.1915 148.346 47.2082C148.789 47.2184 148.749 47.1544 149.089 47.357L149.109 47.5245L148.903 47.5853C148.397 47.6243 147.719 47.6186 147.199 47.6301L147.19 48.889C147.848 48.8798 148.77 48.8179 149.35 49.1059C148.965 49.5041 147.186 49.4204 146.625 49.4181C146.643 48.1178 146.63 46.7822 146.632 45.4794Z" fill="#821015"/>
<path d="M148.346 47.2082C148.789 47.2185 148.748 47.1544 149.089 47.357L149.109 47.5245L148.903 47.5853C148.506 47.513 147.798 47.4649 147.383 47.4247L147.603 47.3203L147.672 47.4465L147.666 47.3019L148.346 47.2082Z" fill="#650301"/>
<path d="M90.1882 45.3538C90.4286 45.411 90.4281 45.4211 90.6441 45.5515C90.8417 46.0819 90.7611 47.02 90.7503 47.6277C91.3484 47.0157 92.4825 45.5774 93.1915 45.4933L93.2726 45.6338L91.7935 47.2822L92.6787 48.3702C92.9518 48.7042 93.3067 49.0026 93.1957 49.4375C92.3477 49.3503 92.0194 47.7436 91.1926 47.8641C90.8378 48.2142 90.7964 48.8109 90.4985 49.371L90.3322 49.3767C90.0256 48.9773 90.176 46.0359 90.1882 45.3538Z" fill="#821015"/>
<path d="M133.799 45.4648C134.368 45.4254 135.192 45.3974 135.557 45.9049C135.153 46.1337 133.999 45.882 133.482 46.2955C133.613 47.2284 135.286 47.2151 135.847 48.314C135.872 49.0956 135.081 49.317 134.432 49.4743C133.956 49.4375 132.953 49.3102 132.809 48.7972L132.967 48.6182C133.53 48.7972 133.903 48.9395 134.501 48.9728C134.861 48.8465 135.057 48.8213 135.284 48.5229C135.104 47.8412 133.732 47.7483 132.982 46.9093C132.728 46.1268 133.178 45.8499 133.799 45.4648Z" fill="#821015"/>
<path d="M140.683 45.4667C141.219 45.4395 142.006 45.3919 142.369 45.842L142.343 46.0511C141.621 46.0691 140.842 45.8041 140.327 46.3131C140.459 47.2218 142.15 47.2315 142.675 48.321C142.665 49.0864 141.967 49.2941 141.313 49.4731C140.636 49.4215 140.246 49.4031 139.702 48.959L139.684 48.7203C139.954 48.6744 141.01 48.912 141.334 48.9831C141.701 48.8649 141.799 48.8523 142.027 48.5333C141.972 47.7024 140.536 47.7403 139.779 46.8628C139.544 46.0931 140.066 45.8139 140.683 45.4667Z" fill="#821015"/>
<path d="M117.264 45.4771C117.688 45.4674 120.297 45.4049 120.522 45.7331L120.417 45.8867C120.031 46.0383 119.601 46.0043 119.181 46.0057L119.194 48.3267C119.206 48.7318 119.259 49.036 119.072 49.386L118.805 49.4227L118.673 49.2999C118.552 48.5 118.63 46.8968 118.649 46.0262C118.07 46.0087 117.798 46.1194 117.358 45.8797L117.264 45.4771Z" fill="#821015"/>
<path d="M137.726 47.5855C138.011 47.1259 138.765 45.5811 139.321 45.5237C139.245 46.0399 138.938 46.4474 138.657 46.8889C138.029 47.885 138.122 48.3303 137.701 49.3551L137.557 49.3631C137.355 48.9156 137.41 48.4898 137.424 47.9975C137.061 47.4305 136.103 46.0196 136.007 45.4241C136.82 45.4965 137.355 46.9015 137.726 47.5855Z" fill="#821015"/>
<path d="M142.826 45.4898C143.504 45.4728 145.543 45.3818 146.083 45.7812C145.69 46.0558 145.174 46.0055 144.694 46.01L144.697 48.4703C144.708 48.8731 144.733 49.0108 144.557 49.3872L144.29 49.4744L144.484 49.4997L144.275 49.4503C144.066 48.8593 144.144 46.7582 144.155 46.0184C143.624 46.0107 143.301 46.1017 142.905 45.8598L142.826 45.4898Z" fill="#821015"/>
<path d="M59.6726 45.3689L59.9889 45.4594C60.3243 45.9232 60.1799 48.2223 60.1719 48.9258C60.8057 48.9189 61.7175 48.7422 62.2081 49.0738L62.2058 49.3986L59.611 49.4158C59.6088 48.15 59.5672 46.6087 59.6726 45.3689Z" fill="#821015"/>
<path d="M121.152 45.3689L121.532 45.5043C121.795 46.0641 121.743 48.8948 121.539 49.5214L121.211 49.3734C120.945 48.7904 121.088 46.0953 121.152 45.3689Z" fill="#650301"/>
</g>
<defs>
<clipPath id="clip0_15_4340">
<rect width="166" height="63.2772" fill="white"/>
</clipPath>
</defs>
</svg>
